<?xml version="1.0" encoding="UTF-8" standalone="no"?>
<!-- Created with Inkscape (http://www.inkscape.org/) -->

<svg
   width="210mm"
   height="210mm"
   viewBox="0 0 210 210"
   version="1.1"
   id="svg2921"
   inkscape:version="1.1.1 (3bf5ae0d25, 2021-09-20)"
   sodipodi:docname="Icon.svg"
   inkscape:export-filename="C:\Users\jaivi\Documents\UNI DUE\Vorlesungen\5. Semester\Kommunikation von Cyber-Warnmeldungen\Logo Vorschläge\Icon.png"
   inkscape:export-xdpi="500"
   inkscape:export-ydpi="500"
   xmlns:inkscape="http://www.inkscape.org/namespaces/inkscape"
   xmlns:sodipodi="http://sodipodi.sourceforge.net/DTD/sodipodi-0.dtd"
   xmlns="http://www.w3.org/2000/svg"
   xmlns:svg="http://www.w3.org/2000/svg">
  <sodipodi:namedview
     id="namedview2923"
     pagecolor="#ffffff"
     bordercolor="#666666"
     borderopacity="1.0"
     inkscape:pageshadow="2"
     inkscape:pageopacity="0.0"
     inkscape:pagecheckerboard="0"
     inkscape:document-units="mm"
     showgrid="false"
     showguides="true"
     inkscape:guide-bbox="true"
     inkscape:zoom="1.0431611"
     inkscape:cx="467.32954"
     inkscape:cy="377.21882"
     inkscape:window-width="1920"
     inkscape:window-height="991"
     inkscape:window-x="-9"
     inkscape:window-y="-9"
     inkscape:window-maximized="1"
     inkscape:current-layer="layer1" />
  <defs
     id="defs2918">
    <inkscape:path-effect
       effect="powerclip"
       id="path-effect897"
       is_visible="true"
       lpeversion="1"
       inverse="true"
       flatten="false"
       hide_clip="false"
       message="Füllregel Gerade-Ungerade im &lt;b&gt;Füllung und Kontur&lt;/b&gt;-Dialog verwenden, wenn das Anwenden des Ausschnitts mit nachfolgendem Umwandeln in Pfade kein Ergebnis bringt" />
    <inkscape:path-effect
       effect="powerclip"
       id="path-effect893"
       is_visible="true"
       lpeversion="1"
       inverse="true"
       flatten="false"
       hide_clip="false"
       message="Füllregel Gerade-Ungerade im &lt;b&gt;Füllung und Kontur&lt;/b&gt;-Dialog verwenden, wenn das Anwenden des Ausschnitts mit nachfolgendem Umwandeln in Pfade kein Ergebnis bringt" />
    <inkscape:path-effect
       effect="powerclip"
       id="path-effect889"
       is_visible="true"
       lpeversion="1"
       inverse="true"
       flatten="false"
       hide_clip="false"
       message="Füllregel Gerade-Ungerade im &lt;b&gt;Füllung und Kontur&lt;/b&gt;-Dialog verwenden, wenn das Anwenden des Ausschnitts mit nachfolgendem Umwandeln in Pfade kein Ergebnis bringt" />
    <inkscape:path-effect
       effect="powerclip"
       id="path-effect885"
       is_visible="true"
       lpeversion="1"
       inverse="true"
       flatten="false"
       hide_clip="false"
       message="Füllregel Gerade-Ungerade im &lt;b&gt;Füllung und Kontur&lt;/b&gt;-Dialog verwenden, wenn das Anwenden des Ausschnitts mit nachfolgendem Umwandeln in Pfade kein Ergebnis bringt" />
    <clipPath
       clipPathUnits="userSpaceOnUse"
       id="clipPath16602">
      <g
         aria-label="C"
         id="g16606"
         style="font-size:44.6799px;line-height:1.25;font-family:Gilroy;-inkscape-font-specification:Gilroy;stroke-width:1.117">
        <path
           d="m 17.54491,390.6289 c 5.71903,0 10.72318,-2.81484 13.40397,-7.23815 l -6.16583,-3.57439 c -1.34039,2.41272 -4.06587,3.84247 -7.23814,3.84247 -5.54031,0 -9.1147,-3.70843 -9.1147,-9.29342 0,-5.58498 3.57439,-9.29342 9.1147,-9.29342 3.17227,0 5.85307,1.42976 7.23814,3.84248 l 6.16583,-3.5744 c -2.72547,-4.42331 -7.72962,-7.23814 -13.40397,-7.23814 -9.42746,0 -16.26348,7.05942 -16.26348,16.26348 0,9.20406 6.83602,16.26349 16.26348,16.26349 z"
           id="path16604"
           style="fill:#ef1b4a;fill-opacity:1" />
      </g>
    </clipPath>
    <clipPath
       clipPathUnits="userSpaceOnUse"
       id="clipPath2995">
      <g
         aria-label="C"
         id="g2993"
         style="font-size:44.6799px;line-height:1.25;font-family:Gilroy;-inkscape-font-specification:Gilroy;stroke-width:1.117">
        <path
           d="m 17.54491,390.6289 c 5.71903,0 10.72318,-2.81484 13.40397,-7.23815 l -6.16583,-3.57439 c -1.34039,2.41272 -4.06587,3.84247 -7.23814,3.84247 -5.54031,0 -9.1147,-3.70843 -9.1147,-9.29342 0,-5.58498 3.57439,-9.29342 9.1147,-9.29342 3.17227,0 5.85307,1.42976 7.23814,3.84248 l 6.16583,-3.5744 c -2.72547,-4.42331 -7.72962,-7.23814 -13.40397,-7.23814 -9.42746,0 -16.26348,7.05942 -16.26348,16.26348 0,9.20406 6.83602,16.26349 16.26348,16.26349 z"
           id="path2991"
           style="fill:#ef1b4a;fill-opacity:1" />
      </g>
    </clipPath>
    <clipPath
       clipPathUnits="userSpaceOnUse"
       id="clipPath67886">
      <g
         aria-label="E"
         id="g67890"
         style="font-size:10.5833px;line-height:1.25;font-family:Gilroy;-inkscape-font-specification:Gilroy;stroke-width:0.264583"
         transform="matrix(1.5657409,0,0,1.5657409,-30.088258,-67.881966)">
        <path
           d="m 57.259917,158.59619 v -1.31233 h 2.645825 v -1.60867 h -2.645825 v -1.22766 h 2.910407 v -1.62983 h -4.603735 v 7.40831 h 4.656652 v -1.62982 z"
           id="path67888" />
      </g>
    </clipPath>
    <clipPath
       clipPathUnits="userSpaceOnUse"
       id="clipPath68090">
      <g
         aria-label="R"
         id="g68094"
         style="font-size:10.5833px;line-height:1.25;font-family:Gilroy;-inkscape-font-specification:Gilroy;stroke-width:0.264583"
         transform="matrix(1.5631778,0,0,1.5631778,-53.085878,-101.51293)">
        <path
           d="m 74.08379,182.07803 h 1.820328 l -1.576912,-2.7199 c 0.814914,-0.41275 1.365246,-1.23825 1.365246,-2.14841 0,-1.40758 -1.132413,-2.54 -2.539992,-2.54 h -2.963324 v 7.40831 h 1.693328 v -2.43416 h 0.804331 z m -2.201326,-5.82081 h 1.269996 c 0.465665,0 0.846664,0.41275 0.846664,0.9525 0,0.53974 -0.380999,0.95249 -0.846664,0.95249 h -1.269996 z"
           id="path68092" />
      </g>
    </clipPath>
    <clipPath
       clipPathUnits="userSpaceOnUse"
       id="clipPath68370">
      <g
         aria-label="T"
         id="g68374"
         style="font-size:10.5833px;line-height:1.25;font-family:Gilroy;-inkscape-font-specification:Gilroy;stroke-width:0.264583"
         transform="matrix(1.5360115,0,0,1.5360115,-61.008157,-127.52357)">
        <path
           d="m 82.687167,195.06779 h -5.503316 v 1.62983 h 1.904994 v 5.77848 h 1.693328 v -5.77848 h 1.904994 z"
           id="path68372" />
      </g>
    </clipPath>
    <clipPath
       clipPathUnits="userSpaceOnUse"
       id="clipPath96123">
      <g
         aria-label="O"
         id="g96127"
         style="font-weight:800;font-size:11.6135px;line-height:1.25;font-family:Gilroy;-inkscape-font-specification:'Gilroy Ultra-Bold';stroke-width:0.290339">
        <path
           d="m 59.294808,180.6169 c 2.334314,0 4.227314,-1.83493 4.227314,-4.22731 0,-2.39238 -1.893,-4.22731 -4.227314,-4.22731 -2.334313,0 -4.227314,1.83493 -4.227314,4.22731 0,2.39238 1.893001,4.22731 4.227314,4.22731 z m 0,-1.8117 c -1.323939,0 -2.369154,-0.96392 -2.369154,-2.41561 0,-1.45169 1.045215,-2.41561 2.369154,-2.41561 1.323939,0 2.369154,0.96392 2.369154,2.41561 0,1.45169 -1.045215,2.41561 -2.369154,2.41561 z"
           id="path96125" />
      </g>
    </clipPath>
    <clipPath
       clipPathUnits="userSpaceOnUse"
       id="clipPath98326">
      <rect
         style="fill:#ffffff;fill-opacity:1;stroke:none;stroke-width:0.0499999;stroke-linecap:round;stroke-linejoin:round;stroke-miterlimit:4;stroke-dasharray:none;stroke-opacity:1"
         id="rect98328"
         width="10.96875"
         height="9.75"
         x="161.89072"
         y="72.382278"
         transform="rotate(45.285762)" />
    </clipPath>
    <clipPath
       clipPathUnits="userSpaceOnUse"
       id="clipPath10068">
      <text
         xml:space="preserve"
         style="font-size:16.0001px;line-height:1.25;font-family:Gilroy;-inkscape-font-specification:Gilroy;fill:#ffffff;fill-opacity:1;stroke-width:0.400005"
         x="72.02652"
         y="182.81755"
         id="text10072"><tspan
           sodipodi:role="line"
           id="tspan10070"
           style="font-style:normal;font-variant:normal;font-weight:800;font-stretch:normal;font-family:Gilroy;-inkscape-font-specification:'Gilroy Ultra-Bold';fill:#ffffff;fill-opacity:1;stroke-width:0.400005"
           x="72.02652"
           y="182.81755">n</tspan></text>
    </clipPath>
    <clipPath
       clipPathUnits="userSpaceOnUse"
       id="clipPath3018">
      <text
         xml:space="preserve"
         style="font-size:16.0001px;line-height:1.25;font-family:Gilroy;-inkscape-font-specification:Gilroy;fill:#ffffff;fill-opacity:1;stroke-width:0.400005"
         x="72.02652"
         y="182.81755"
         id="text3016"><tspan
           sodipodi:role="line"
           id="tspan3014"
           style="font-style:normal;font-variant:normal;font-weight:800;font-stretch:normal;font-family:Gilroy;-inkscape-font-specification:'Gilroy Ultra-Bold';fill:#ffffff;fill-opacity:1;stroke-width:0.400005"
           x="72.02652"
           y="182.81755">n</tspan></text>
    </clipPath>
    <clipPath
       clipPathUnits="userSpaceOnUse"
       id="clipPath3024">
      <g
         aria-label="C"
         id="g3022"
         style="font-size:44.6799px;line-height:1.25;font-family:Gilroy;-inkscape-font-specification:Gilroy;stroke-width:1.117">
        <path
           d="m 17.54491,390.6289 c 5.71903,0 10.72318,-2.81484 13.40397,-7.23815 l -6.16583,-3.57439 c -1.34039,2.41272 -4.06587,3.84247 -7.23814,3.84247 -5.54031,0 -9.1147,-3.70843 -9.1147,-9.29342 0,-5.58498 3.57439,-9.29342 9.1147,-9.29342 3.17227,0 5.85307,1.42976 7.23814,3.84248 l 6.16583,-3.5744 c -2.72547,-4.42331 -7.72962,-7.23814 -13.40397,-7.23814 -9.42746,0 -16.26348,7.05942 -16.26348,16.26348 0,9.20406 6.83602,16.26349 16.26348,16.26349 z"
           id="path3020"
           style="fill:#ef1b4a;fill-opacity:1" />
      </g>
    </clipPath>
    <clipPath
       clipPathUnits="userSpaceOnUse"
       id="clipPath869">
      <circle
         style="display:none;fill:#ffffff;fill-opacity:1;stroke:none;stroke-width:0.515217;stroke-linecap:round;stroke-linejoin:round;stroke-miterlimit:4;stroke-dasharray:none;stroke-opacity:1;paint-order:normal"
         id="circle871"
         cx="34.75029"
         cy="102.87553"
         r="7.2295604"
         d="m 41.97985,102.87553 a 7.2295604,7.2295604 0 0 1 -7.22956,7.22956 7.2295604,7.2295604 0 0 1 -7.22956,-7.22956 7.2295604,7.2295604 0 0 1 7.22956,-7.229564 7.2295604,7.2295604 0 0 1 7.22956,7.229564 z" />
      <path
         id="lpe_path-effect885"
         style="fill:#ffffff;fill-opacity:1;stroke:none;stroke-width:0.515217;stroke-linecap:round;stroke-linejoin:round;stroke-miterlimit:4;stroke-dasharray:none;stroke-opacity:1;paint-order:normal"
         class="powerclip"
         d="M 19.405522,98.063204 H 40.549015 V 111.06266 H 19.405522 Z m 22.574328,4.812326 a 7.2295604,7.2295604 0 0 0 -7.22956,-7.229564 7.2295604,7.2295604 0 0 0 -7.22956,7.229564 7.2295604,7.2295604 0 0 0 7.22956,7.22956 7.2295604,7.2295604 0 0 0 7.22956,-7.22956 z" />
    </clipPath>
    <clipPath
       clipPathUnits="userSpaceOnUse"
       id="clipPath873">
      <circle
         style="display:none;fill:#ffffff;fill-opacity:1;stroke:none;stroke-width:0.515217;stroke-linecap:round;stroke-linejoin:round;stroke-miterlimit:4;stroke-dasharray:none;stroke-opacity:1;paint-order:normal"
         id="circle875"
         cx="34.75029"
         cy="102.87553"
         r="7.2295604"
         d="m 41.97985,102.87553 a 7.2295604,7.2295604 0 0 1 -7.22956,7.22956 7.2295604,7.2295604 0 0 1 -7.22956,-7.22956 7.2295604,7.2295604 0 0 1 7.22956,-7.229564 7.2295604,7.2295604 0 0 1 7.22956,7.229564 z" />
      <path
         id="lpe_path-effect889"
         style="fill:#ffffff;fill-opacity:1;stroke:none;stroke-width:0.515217;stroke-linecap:round;stroke-linejoin:round;stroke-miterlimit:4;stroke-dasharray:none;stroke-opacity:1;paint-order:normal"
         class="powerclip"
         d="M 27.526049,86.783155 H 40.795563 V 108.51567 H 27.526049 Z M 41.97985,102.87553 a 7.2295604,7.2295604 0 0 0 -7.22956,-7.229564 7.2295604,7.2295604 0 0 0 -7.22956,7.229564 7.2295604,7.2295604 0 0 0 7.22956,7.22956 7.2295604,7.2295604 0 0 0 7.22956,-7.22956 z" />
    </clipPath>
    <clipPath
       clipPathUnits="userSpaceOnUse"
       id="clipPath877">
      <circle
         style="display:none;fill:#ffffff;fill-opacity:1;stroke:none;stroke-width:0.515217;stroke-linecap:round;stroke-linejoin:round;stroke-miterlimit:4;stroke-dasharray:none;stroke-opacity:1;paint-order:normal"
         id="circle879"
         cx="34.75029"
         cy="102.87553"
         r="7.2295604"
         d="m 41.97985,102.87553 a 7.2295604,7.2295604 0 0 1 -7.22956,7.22956 7.2295604,7.2295604 0 0 1 -7.22956,-7.22956 7.2295604,7.2295604 0 0 1 7.22956,-7.229564 7.2295604,7.2295604 0 0 1 7.22956,7.229564 z" />
      <path
         id="lpe_path-effect893"
         style="fill:#ffffff;fill-opacity:1;stroke:none;stroke-width:0.515217;stroke-linecap:round;stroke-linejoin:round;stroke-miterlimit:4;stroke-dasharray:none;stroke-opacity:1;paint-order:normal"
         class="powerclip"
         d="m 29.262759,89.975039 h 18.247 V 109.9893 h -18.247 z M 41.97985,102.87553 a 7.2295604,7.2295604 0 0 0 -7.22956,-7.229564 7.2295604,7.2295604 0 0 0 -7.22956,7.229564 7.2295604,7.2295604 0 0 0 7.22956,7.22956 7.2295604,7.2295604 0 0 0 7.22956,-7.22956 z" />
    </clipPath>
    <clipPath
       clipPathUnits="userSpaceOnUse"
       id="clipPath881">
      <circle
         style="display:none;fill:#ffffff;fill-opacity:1;stroke:none;stroke-width:0.515217;stroke-linecap:round;stroke-linejoin:round;stroke-miterlimit:4;stroke-dasharray:none;stroke-opacity:1;paint-order:normal"
         id="circle883"
         cx="34.75029"
         cy="102.87553"
         r="7.2295604"
         d="m 41.97985,102.87553 a 7.2295604,7.2295604 0 0 1 -7.22956,7.22956 7.2295604,7.2295604 0 0 1 -7.22956,-7.22956 7.2295604,7.2295604 0 0 1 7.22956,-7.229564 7.2295604,7.2295604 0 0 1 7.22956,7.229564 z" />
      <path
         id="lpe_path-effect897"
         style="fill:#ffffff;fill-opacity:1;stroke:none;stroke-width:0.515217;stroke-linecap:round;stroke-linejoin:round;stroke-miterlimit:4;stroke-dasharray:none;stroke-opacity:1;paint-order:normal"
         class="powerclip"
         d="M 27.778608,97.904296 H 49.692979 V 117.1469 H 27.778608 Z m 14.201242,4.971234 a 7.2295604,7.2295604 0 0 0 -7.22956,-7.229564 7.2295604,7.2295604 0 0 0 -7.22956,7.229564 7.2295604,7.2295604 0 0 0 7.22956,7.22956 7.2295604,7.2295604 0 0 0 7.22956,-7.22956 z" />
    </clipPath>
  </defs>
  <g
     inkscape:label="Ebene 1"
     inkscape:groupmode="layer"
     id="layer1">
    <g
       id="g289898"
       transform="matrix(6.4804982,0,0,6.4804982,-119.30106,-551.86563)"
       inkscape:export-filename="C:\Users\jaivi\Documents\UNI DUE\Vorlesungen\5. Semester\Kommunikation von Cyber-Warnmeldungen\Logo Vorschläge\Icon.png"
       inkscape:export-xdpi="500"
       inkscape:export-ydpi="500">
      <path
         style="fill:none;stroke:#0f45ff;stroke-width:0.588;stroke-linecap:butt;stroke-linejoin:miter;stroke-miterlimit:4;stroke-dasharray:none;stroke-opacity:1"
         d="M 44.515219,111.91273 32.956368,103.13847"
         id="path289864"
         sodipodi:nodetypes="cc"
         clip-path="url(#clipPath881)"
         inkscape:path-effect="#path-effect897"
         inkscape:original-d="M 44.515219,111.91273 32.956368,103.13847" />
      <path
         style="fill:none;stroke:#0f45ff;stroke-width:0.588;stroke-linecap:butt;stroke-linejoin:miter;stroke-miterlimit:4;stroke-dasharray:none;stroke-opacity:1"
         d="m 42.281039,95.159763 -7.78956,9.644817"
         id="path289866"
         sodipodi:nodetypes="cc"
         clip-path="url(#clipPath877)"
         inkscape:path-effect="#path-effect893"
         inkscape:original-d="m 42.281039,95.159763 -7.78956,9.644817" />
      <path
         style="fill:none;stroke:#0f45ff;stroke-width:0.588;stroke-linecap:butt;stroke-linejoin:miter;stroke-miterlimit:4;stroke-dasharray:none;stroke-opacity:1"
         d="m 32.812411,91.849733 2.69679,11.599357"
         id="path289868"
         sodipodi:nodetypes="cc"
         clip-path="url(#clipPath873)"
         inkscape:path-effect="#path-effect889"
         inkscape:original-d="m 32.812411,91.849733 2.69679,11.599357" />
      <path
         style="fill:none;stroke:#0f45ff;stroke-width:0.588;stroke-linecap:butt;stroke-linejoin:miter;stroke-miterlimit:4;stroke-dasharray:none;stroke-opacity:1"
         d="m 24.468727,105.77553 11.017083,-2.4252"
         id="path289870"
         sodipodi:nodetypes="cc"
         clip-path="url(#clipPath869)"
         inkscape:path-effect="#path-effect885"
         inkscape:original-d="m 24.468727,105.77553 11.017083,-2.4252" />
      <circle
         style="fill:none;fill-opacity:1;stroke:#0f45ff;stroke-width:0.534634;stroke-miterlimit:4;stroke-dasharray:none;stroke-opacity:1"
         id="circle289872"
         cx="22.201675"
         cy="106.24038"
         r="2.2847953" />
      <circle
         style="fill:#0f45ff;fill-opacity:1;stroke-width:0.624749;stroke-miterlimit:4;stroke-dasharray:none"
         id="circle289874"
         cx="25.935631"
         cy="95.738693"
         r="2.6699269" />
      <circle
         style="fill:#0f45ff;fill-opacity:1;stroke-width:0.313161;stroke-miterlimit:4;stroke-dasharray:none"
         id="circle289876"
         cx="28.522545"
         cy="110.19769"
         r="1.3383261" />
      <circle
         style="fill:#0f45ff;fill-opacity:1;stroke-width:0.587181;stroke-miterlimit:4;stroke-dasharray:none"
         id="circle289878"
         cx="36.635948"
         cy="113.47538"
         r="2.5093613" />
      <circle
         style="fill:none;fill-opacity:1;stroke:#0f45ff;stroke-width:0.639165;stroke-miterlimit:4;stroke-dasharray:none;stroke-opacity:1"
         id="circle289882"
         cx="46.469044"
         cy="113.72604"
         r="2.7315171" />
      <ellipse
         style="fill:none;fill-opacity:1;stroke:#0f45ff;stroke-width:0.518;stroke-miterlimit:4;stroke-dasharray:none;stroke-opacity:1"
         id="ellipse289884"
         cx="43.324364"
         cy="93.733086"
         rx="1.7527581"
         ry="1.7526556" />
      <circle
         style="fill:none;fill-opacity:1;stroke:#0f45ff;stroke-width:0.6378;stroke-miterlimit:4;stroke-dasharray:none;stroke-opacity:1"
         id="circle289886"
         cx="32.311928"
         cy="88.972115"
         r="2.7256818" />
      <g
         id="g2814">
        <g
           id="g2819"
           transform="translate(-0.2697596,0.1471416)">
          <path
             style="fill:none;fill-opacity:1;stroke:#4467a5;stroke-width:0.717692;stroke-linecap:butt;stroke-linejoin:miter;stroke-miterlimit:4;stroke-dasharray:none;stroke-opacity:1"
             d="m 25.347782,340.17952 -39.185898,40.27395 1.114828,1.08472 39.185898,-40.27396 1.121507,1.09121 -39.185898,40.27396 1.121511,1.09119 39.185898,-40.27393 1.108151,1.07821 -39.1858938,40.27394 1.1215071,1.09122 39.1858987,-40.27395 1.112609,1.08255 -39.1858992,40.27395 1.1170547,1.08687 39.1858975,-40.27395 1.121508,1.09121 -39.1858975,40.27395 1.1170537,1.08687 39.1858978,-40.27395 1.121504,1.09121 -39.1858988,40.27395 1.1126156,1.08256 39.1858992,-40.27395 1.117057,1.08687 -39.18589737,40.27396 1.121504,1.09121 39.18589737,-40.27395 1.114839,1.08471 -39.1858982,40.27395 1.1170466,1.08687 39.1858976,-40.27395 1.117062,1.08688 -39.1858977,40.27396 1.1170587,1.08687 39.185897,-40.27395 1.123731,1.09338 -39.1858977,40.27394 1.1126114,1.08255 39.1858993,-40.27395 1.112601,1.08254 -39.1858994,40.27396 1.130415,1.09987 39.1858984,-40.27395 1.112596,1.08254 -39.185897,40.27395 1.121522,1.09122 39.185899,-40.27394 1.1126,1.08253 -39.185898,40.27396 1.121503,1.09121 39.185899,-40.27395"
             id="path289888"
             clip-path="url(#clipPath16602)"
             transform="matrix(0.35879846,0,0,0.35879846,28.640815,-31.603601)" />
          <g
             aria-label="C"
             id="g289892"
             style="font-size:44.6799px;line-height:1.25;font-family:Gilroy;-inkscape-font-specification:Gilroy;fill:#0f45ff;fill-opacity:1;stroke-width:1.117"
             transform="matrix(0.35879846,0,0,0.35879846,28.65793,-31.589863)">
            <path
               d="m 10.752952,380.96515 c -1.4963301,-1.74008 -2.322742,-3.63868 -2.322742,-6.59974 0,-5.58498 3.57439,-9.29342 9.1147,-9.29342 3.17227,0 0,0 0,0 l 0.0082,-7.02719 c 0,0 5.67435,0 0,0 -9.4274597,0 -16.326375,7.12809 -16.326375,16.33215 0,4.56611 1.7371576,8.59287 4.5837687,11.50326 z"
               id="path289890"
               style="fill:#0f45ff;fill-opacity:1"
               sodipodi:nodetypes="cssccsscc" />
          </g>
        </g>
      </g>
      <ellipse
         style="fill:#0f45ff;fill-opacity:1;stroke-width:0.449638;stroke-miterlimit:4;stroke-dasharray:none"
         id="ellipse289896"
         cx="45.252586"
         cy="103.269"
         rx="1.9211861"
         ry="1.9215721" />
    </g>
  </g>
</svg>
