<?xml version="1.0" encoding="UTF-8" standalone="no"?>
<!-- Created with Inkscape (http://www.inkscape.org/) -->

<svg
   width="297mm"
   height="100mm"
   viewBox="0 0 297 100"
   version="1.1"
   id="svg984"
   inkscape:version="1.1.1 (3bf5ae0d25, 2021-09-20)"
   sodipodi:docname="Logo.svg"
   inkscape:export-filename="C:\Users\jaivi\Documents\UNI DUE\Vorlesungen\5. Semester\Kommunikation von Cyber-Warnmeldungen\Logo Vorschläge\Logo.png"
   inkscape:export-xdpi="500"
   inkscape:export-ydpi="500"
   xmlns:inkscape="http://www.inkscape.org/namespaces/inkscape"
   xmlns:sodipodi="http://sodipodi.sourceforge.net/DTD/sodipodi-0.dtd"
   xmlns="http://www.w3.org/2000/svg"
   xmlns:svg="http://www.w3.org/2000/svg">
  <sodipodi:namedview
     id="namedview986"
     pagecolor="#ffffff"
     bordercolor="#666666"
     borderopacity="1.0"
     inkscape:pageshadow="2"
     inkscape:pageopacity="0.0"
     inkscape:pagecheckerboard="0"
     inkscape:document-units="mm"
     showgrid="false"
     inkscape:zoom="0.73762625"
     inkscape:cx="537.5351"
     inkscape:cy="288.08628"
     inkscape:window-width="1920"
     inkscape:window-height="991"
     inkscape:window-x="-9"
     inkscape:window-y="-9"
     inkscape:window-maximized="1"
     inkscape:current-layer="layer1" />
  <defs
     id="defs981">
    <inkscape:path-effect
       effect="powerclip"
       id="path-effect910"
       is_visible="true"
       lpeversion="1"
       inverse="true"
       flatten="false"
       hide_clip="false"
       message="Füllregel Gerade-Ungerade im &lt;b&gt;Füllung und Kontur&lt;/b&gt;-Dialog verwenden, wenn das Anwenden des Ausschnitts mit nachfolgendem Umwandeln in Pfade kein Ergebnis bringt" />
    <inkscape:path-effect
       effect="powerclip"
       id="path-effect906"
       is_visible="true"
       lpeversion="1"
       inverse="true"
       flatten="false"
       hide_clip="false"
       message="Füllregel Gerade-Ungerade im &lt;b&gt;Füllung und Kontur&lt;/b&gt;-Dialog verwenden, wenn das Anwenden des Ausschnitts mit nachfolgendem Umwandeln in Pfade kein Ergebnis bringt" />
    <inkscape:path-effect
       effect="powerclip"
       id="path-effect902"
       is_visible="true"
       lpeversion="1"
       inverse="true"
       flatten="false"
       hide_clip="false"
       message="Füllregel Gerade-Ungerade im &lt;b&gt;Füllung und Kontur&lt;/b&gt;-Dialog verwenden, wenn das Anwenden des Ausschnitts mit nachfolgendem Umwandeln in Pfade kein Ergebnis bringt" />
    <inkscape:path-effect
       effect="powerclip"
       id="path-effect898"
       is_visible="true"
       lpeversion="1"
       inverse="true"
       flatten="false"
       hide_clip="false"
       message="Füllregel Gerade-Ungerade im &lt;b&gt;Füllung und Kontur&lt;/b&gt;-Dialog verwenden, wenn das Anwenden des Ausschnitts mit nachfolgendem Umwandeln in Pfade kein Ergebnis bringt" />
    <clipPath
       clipPathUnits="userSpaceOnUse"
       id="clipPath16602">
      <g
         aria-label="C"
         id="g16606"
         style="font-size:44.6799px;line-height:1.25;font-family:Gilroy;-inkscape-font-specification:Gilroy;stroke-width:1.117">
        <path
           d="m 17.54491,390.6289 c 5.71903,0 10.72318,-2.81484 13.40397,-7.23815 l -6.16583,-3.57439 c -1.34039,2.41272 -4.06587,3.84247 -7.23814,3.84247 -5.54031,0 -9.1147,-3.70843 -9.1147,-9.29342 0,-5.58498 3.57439,-9.29342 9.1147,-9.29342 3.17227,0 5.85307,1.42976 7.23814,3.84248 l 6.16583,-3.5744 c -2.72547,-4.42331 -7.72962,-7.23814 -13.40397,-7.23814 -9.42746,0 -16.26348,7.05942 -16.26348,16.26348 0,9.20406 6.83602,16.26349 16.26348,16.26349 z"
           id="path16604"
           style="fill:#ef1b4a;fill-opacity:1" />
      </g>
    </clipPath>
    <clipPath
       clipPathUnits="userSpaceOnUse"
       id="clipPath919">
      <g
         aria-label="C"
         id="g917"
         style="font-size:44.6799px;line-height:1.25;font-family:Gilroy;-inkscape-font-specification:Gilroy;stroke-width:1.117">
        <path
           d="m 17.54491,390.6289 c 5.71903,0 10.72318,-2.81484 13.40397,-7.23815 l -6.16583,-3.57439 c -1.34039,2.41272 -4.06587,3.84247 -7.23814,3.84247 -5.54031,0 -9.1147,-3.70843 -9.1147,-9.29342 0,-5.58498 3.57439,-9.29342 9.1147,-9.29342 3.17227,0 5.85307,1.42976 7.23814,3.84248 l 6.16583,-3.5744 c -2.72547,-4.42331 -7.72962,-7.23814 -13.40397,-7.23814 -9.42746,0 -16.26348,7.05942 -16.26348,16.26348 0,9.20406 6.83602,16.26349 16.26348,16.26349 z"
           id="path915"
           style="fill:#ef1b4a;fill-opacity:1" />
      </g>
    </clipPath>
    <clipPath
       clipPathUnits="userSpaceOnUse"
       id="clipPath67886">
      <g
         aria-label="E"
         id="g67890"
         style="font-size:10.5833px;line-height:1.25;font-family:Gilroy;-inkscape-font-specification:Gilroy;stroke-width:0.264583"
         transform="matrix(1.5657409,0,0,1.5657409,-30.088258,-67.881966)">
        <path
           d="m 57.259917,158.59619 v -1.31233 h 2.645825 v -1.60867 h -2.645825 v -1.22766 h 2.910407 v -1.62983 h -4.603735 v 7.40831 h 4.656652 v -1.62982 z"
           id="path67888" />
      </g>
    </clipPath>
    <clipPath
       clipPathUnits="userSpaceOnUse"
       id="clipPath68090">
      <g
         aria-label="R"
         id="g68094"
         style="font-size:10.5833px;line-height:1.25;font-family:Gilroy;-inkscape-font-specification:Gilroy;stroke-width:0.264583"
         transform="matrix(1.5631778,0,0,1.5631778,-53.085878,-101.51293)">
        <path
           d="m 74.08379,182.07803 h 1.820328 l -1.576912,-2.7199 c 0.814914,-0.41275 1.365246,-1.23825 1.365246,-2.14841 0,-1.40758 -1.132413,-2.54 -2.539992,-2.54 h -2.963324 v 7.40831 h 1.693328 v -2.43416 h 0.804331 z m -2.201326,-5.82081 h 1.269996 c 0.465665,0 0.846664,0.41275 0.846664,0.9525 0,0.53974 -0.380999,0.95249 -0.846664,0.95249 h -1.269996 z"
           id="path68092" />
      </g>
    </clipPath>
    <clipPath
       clipPathUnits="userSpaceOnUse"
       id="clipPath68370">
      <g
         aria-label="T"
         id="g68374"
         style="font-size:10.5833px;line-height:1.25;font-family:Gilroy;-inkscape-font-specification:Gilroy;stroke-width:0.264583"
         transform="matrix(1.5360115,0,0,1.5360115,-61.008157,-127.52357)">
        <path
           d="m 82.687167,195.06779 h -5.503316 v 1.62983 h 1.904994 v 5.77848 h 1.693328 v -5.77848 h 1.904994 z"
           id="path68372" />
      </g>
    </clipPath>
    <clipPath
       clipPathUnits="userSpaceOnUse"
       id="clipPath96123">
      <g
         aria-label="O"
         id="g96127"
         style="font-weight:800;font-size:11.6135px;line-height:1.25;font-family:Gilroy;-inkscape-font-specification:'Gilroy Ultra-Bold';stroke-width:0.290339">
        <path
           d="m 59.294808,180.6169 c 2.334314,0 4.227314,-1.83493 4.227314,-4.22731 0,-2.39238 -1.893,-4.22731 -4.227314,-4.22731 -2.334313,0 -4.227314,1.83493 -4.227314,4.22731 0,2.39238 1.893001,4.22731 4.227314,4.22731 z m 0,-1.8117 c -1.323939,0 -2.369154,-0.96392 -2.369154,-2.41561 0,-1.45169 1.045215,-2.41561 2.369154,-2.41561 1.323939,0 2.369154,0.96392 2.369154,2.41561 0,1.45169 -1.045215,2.41561 -2.369154,2.41561 z"
           id="path96125" />
      </g>
    </clipPath>
    <clipPath
       clipPathUnits="userSpaceOnUse"
       id="clipPath98326">
      <rect
         style="fill:#ffffff;fill-opacity:1;stroke:none;stroke-width:0.0499999;stroke-linecap:round;stroke-linejoin:round;stroke-miterlimit:4;stroke-dasharray:none;stroke-opacity:1"
         id="rect98328"
         width="10.96875"
         height="9.75"
         x="161.89072"
         y="72.382278"
         transform="rotate(45.285762)" />
    </clipPath>
    <clipPath
       clipPathUnits="userSpaceOnUse"
       id="clipPath10068">
      <text
         xml:space="preserve"
         style="font-size:16.0001px;line-height:1.25;font-family:Gilroy;-inkscape-font-specification:Gilroy;fill:#ffffff;fill-opacity:1;stroke-width:0.400005"
         x="72.02652"
         y="182.81755"
         id="text10072"><tspan
           sodipodi:role="line"
           id="tspan10070"
           style="font-style:normal;font-variant:normal;font-weight:800;font-stretch:normal;font-family:Gilroy;-inkscape-font-specification:'Gilroy Ultra-Bold';fill:#ffffff;fill-opacity:1;stroke-width:0.400005"
           x="72.02652"
           y="182.81755">n</tspan></text>
    </clipPath>
    <clipPath
       clipPathUnits="userSpaceOnUse"
       id="clipPath942">
      <text
         xml:space="preserve"
         style="font-size:16.0001px;line-height:1.25;font-family:Gilroy;-inkscape-font-specification:Gilroy;fill:#ffffff;fill-opacity:1;stroke-width:0.400005"
         x="72.02652"
         y="182.81755"
         id="text940"><tspan
           sodipodi:role="line"
           id="tspan938"
           style="font-style:normal;font-variant:normal;font-weight:800;font-stretch:normal;font-family:Gilroy;-inkscape-font-specification:'Gilroy Ultra-Bold';fill:#ffffff;fill-opacity:1;stroke-width:0.400005"
           x="72.02652"
           y="182.81755">n</tspan></text>
    </clipPath>
    <clipPath
       clipPathUnits="userSpaceOnUse"
       id="clipPath882">
      <circle
         style="display:none;fill:#ffffff;fill-opacity:1;stroke:none;stroke-width:0.515219;stroke-linecap:round;stroke-linejoin:round;stroke-miterlimit:4;stroke-dasharray:none;stroke-opacity:1;paint-order:normal"
         id="circle884"
         cx="28.612835"
         cy="212.47871"
         r="7.2295604"
         d="m 35.842395,212.47871 a 7.2295604,7.2295604 0 0 1 -7.22956,7.22956 7.2295604,7.2295604 0 0 1 -7.22956,-7.22956 7.2295604,7.2295604 0 0 1 7.22956,-7.22956 7.2295604,7.2295604 0 0 1 7.22956,7.22956 z" />
      <path
         id="lpe_path-effect898"
         style="fill:#ffffff;fill-opacity:1;stroke:none;stroke-width:0.515219;stroke-linecap:round;stroke-linejoin:round;stroke-miterlimit:4;stroke-dasharray:none;stroke-opacity:1;paint-order:normal"
         class="powerclip"
         d="M 13.268064,207.66743 H 34.411557 V 220.6669 H 13.268064 Z m 22.574331,4.81128 a 7.2295604,7.2295604 0 0 0 -7.22956,-7.22956 7.2295604,7.2295604 0 0 0 -7.22956,7.22956 7.2295604,7.2295604 0 0 0 7.22956,7.22956 7.2295604,7.2295604 0 0 0 7.22956,-7.22956 z" />
    </clipPath>
    <clipPath
       clipPathUnits="userSpaceOnUse"
       id="clipPath886">
      <circle
         style="display:none;fill:#ffffff;fill-opacity:1;stroke:none;stroke-width:0.515219;stroke-linecap:round;stroke-linejoin:round;stroke-miterlimit:4;stroke-dasharray:none;stroke-opacity:1;paint-order:normal"
         id="circle888"
         cx="28.612835"
         cy="212.47871"
         r="7.2295604"
         d="m 35.842395,212.47871 a 7.2295604,7.2295604 0 0 1 -7.22956,7.22956 7.2295604,7.2295604 0 0 1 -7.22956,-7.22956 7.2295604,7.2295604 0 0 1 7.22956,-7.22956 7.2295604,7.2295604 0 0 1 7.22956,7.22956 z" />
      <path
         id="lpe_path-effect902"
         style="fill:#ffffff;fill-opacity:1;stroke:none;stroke-width:0.515219;stroke-linecap:round;stroke-linejoin:round;stroke-miterlimit:4;stroke-dasharray:none;stroke-opacity:1;paint-order:normal"
         class="powerclip"
         d="m 21.388591,196.38739 h 13.269514 v 21.73252 H 21.388591 Z m 14.453804,16.09132 a 7.2295604,7.2295604 0 0 0 -7.22956,-7.22956 7.2295604,7.2295604 0 0 0 -7.22956,7.22956 7.2295604,7.2295604 0 0 0 7.22956,7.22956 7.2295604,7.2295604 0 0 0 7.22956,-7.22956 z" />
    </clipPath>
    <clipPath
       clipPathUnits="userSpaceOnUse"
       id="clipPath890">
      <circle
         style="display:none;fill:#ffffff;fill-opacity:1;stroke:none;stroke-width:0.515219;stroke-linecap:round;stroke-linejoin:round;stroke-miterlimit:4;stroke-dasharray:none;stroke-opacity:1;paint-order:normal"
         id="circle892"
         cx="28.612835"
         cy="212.47871"
         r="7.2295604"
         d="m 35.842395,212.47871 a 7.2295604,7.2295604 0 0 1 -7.22956,7.22956 7.2295604,7.2295604 0 0 1 -7.22956,-7.22956 7.2295604,7.2295604 0 0 1 7.22956,-7.22956 7.2295604,7.2295604 0 0 1 7.22956,7.22956 z" />
      <path
         id="lpe_path-effect906"
         style="fill:#ffffff;fill-opacity:1;stroke:none;stroke-width:0.515219;stroke-linecap:round;stroke-linejoin:round;stroke-miterlimit:4;stroke-dasharray:none;stroke-opacity:1;paint-order:normal"
         class="powerclip"
         d="m 23.125301,199.57928 h 18.247 v 20.01426 h -18.247 z m 12.717094,12.89943 a 7.2295604,7.2295604 0 0 0 -7.22956,-7.22956 7.2295604,7.2295604 0 0 0 -7.22956,7.22956 7.2295604,7.2295604 0 0 0 7.22956,7.22956 7.2295604,7.2295604 0 0 0 7.22956,-7.22956 z" />
    </clipPath>
    <clipPath
       clipPathUnits="userSpaceOnUse"
       id="clipPath894">
      <circle
         style="display:none;fill:#ffffff;fill-opacity:1;stroke:none;stroke-width:0.515219;stroke-linecap:round;stroke-linejoin:round;stroke-miterlimit:4;stroke-dasharray:none;stroke-opacity:1;paint-order:normal"
         id="circle896"
         cx="28.612835"
         cy="212.47871"
         r="7.2295604"
         d="m 35.842395,212.47871 a 7.2295604,7.2295604 0 0 1 -7.22956,7.22956 7.2295604,7.2295604 0 0 1 -7.22956,-7.22956 7.2295604,7.2295604 0 0 1 7.22956,-7.22956 7.2295604,7.2295604 0 0 1 7.22956,7.22956 z" />
      <path
         id="lpe_path-effect910"
         style="fill:#ffffff;fill-opacity:1;stroke:none;stroke-width:0.515219;stroke-linecap:round;stroke-linejoin:round;stroke-miterlimit:4;stroke-dasharray:none;stroke-opacity:1;paint-order:normal"
         class="powerclip"
         d="m 21.638352,207.51069 h 21.423874 v 19.07294 H 21.638352 Z m 14.204043,4.96802 a 7.2295604,7.2295604 0 0 0 -7.22956,-7.22956 7.2295604,7.2295604 0 0 0 -7.22956,7.22956 7.2295604,7.2295604 0 0 0 7.22956,7.22956 7.2295604,7.2295604 0 0 0 7.22956,-7.22956 z" />
    </clipPath>
  </defs>
  <g
     inkscape:label="Ebene 1"
     inkscape:groupmode="layer"
     id="layer1">
    <g
       id="g2860"
       transform="matrix(2.9733673,0,0,2.9733673,-30.898482,-576.84273)">
      <path
         style="fill:none;stroke:#0f45ff;stroke-width:0.588;stroke-linecap:butt;stroke-linejoin:miter;stroke-miterlimit:4;stroke-dasharray:none;stroke-opacity:1"
         d="M 37.881668,221.35161 26.81891,212.74271"
         id="path289796"
         sodipodi:nodetypes="cc"
         clip-path="url(#clipPath894)"
         inkscape:path-effect="#path-effect910"
         inkscape:original-d="M 37.881668,221.35161 26.81891,212.74271" />
      <path
         style="fill:none;stroke:#0f45ff;stroke-width:0.588;stroke-linecap:butt;stroke-linejoin:miter;stroke-miterlimit:4;stroke-dasharray:none;stroke-opacity:1"
         d="m 36.143581,204.764 -7.78956,9.64482"
         id="path289798"
         sodipodi:nodetypes="cc"
         clip-path="url(#clipPath890)"
         inkscape:path-effect="#path-effect906"
         inkscape:original-d="m 36.143581,204.764 -7.78956,9.64482" />
      <path
         style="fill:none;stroke:#0f45ff;stroke-width:0.588;stroke-linecap:butt;stroke-linejoin:miter;stroke-miterlimit:4;stroke-dasharray:none;stroke-opacity:1"
         d="m 26.674953,201.45397 2.69679,11.59936"
         id="path289800"
         sodipodi:nodetypes="cc"
         clip-path="url(#clipPath886)"
         inkscape:path-effect="#path-effect902"
         inkscape:original-d="m 26.674953,201.45397 2.69679,11.59936" />
      <path
         style="fill:none;stroke:#0f45ff;stroke-width:0.588;stroke-linecap:butt;stroke-linejoin:miter;stroke-miterlimit:4;stroke-dasharray:none;stroke-opacity:1"
         d="m 18.331269,215.37977 11.017083,-2.42521"
         id="path289802"
         sodipodi:nodetypes="cc"
         clip-path="url(#clipPath882)"
         inkscape:path-effect="#path-effect898"
         inkscape:original-d="m 18.331269,215.37977 11.017083,-2.42521" />
      <circle
         style="fill:none;fill-opacity:1;stroke:#0f45ff;stroke-width:0.534634;stroke-miterlimit:4;stroke-dasharray:none;stroke-opacity:1"
         id="circle289804"
         cx="16.064219"
         cy="215.84357"
         r="2.2847953" />
      <circle
         style="fill:#0f45ff;fill-opacity:1;stroke-width:0.624749;stroke-miterlimit:4;stroke-dasharray:none"
         id="circle289806"
         cx="20.686848"
         cy="205.80959"
         r="2.6699269" />
      <circle
         style="fill:#0f45ff;fill-opacity:1;stroke-width:0.313161;stroke-miterlimit:4;stroke-dasharray:none"
         id="circle289808"
         cx="22.38509"
         cy="219.80086"
         r="1.3383261" />
      <circle
         style="fill:#0f45ff;fill-opacity:1;stroke-width:0.587181;stroke-miterlimit:4;stroke-dasharray:none"
         id="circle289810"
         cx="30.498493"
         cy="223.07855"
         r="2.5093613" />
      <circle
         style="fill:none;fill-opacity:1;stroke:#0f45ff;stroke-width:0.639165;stroke-miterlimit:4;stroke-dasharray:none;stroke-opacity:1"
         id="circle289814"
         cx="39.823456"
         cy="223.07434"
         r="2.7315171" />
      <ellipse
         style="fill:none;fill-opacity:1;stroke:#0f45ff;stroke-width:0.518;stroke-miterlimit:4;stroke-dasharray:none;stroke-opacity:1"
         id="ellipse289816"
         cx="37.186909"
         cy="203.33626"
         rx="1.7527581"
         ry="1.7526556" />
      <circle
         style="fill:none;fill-opacity:1;stroke:#0f45ff;stroke-width:0.6378;stroke-miterlimit:4;stroke-dasharray:none;stroke-opacity:1"
         id="circle289818"
         cx="26.174473"
         cy="198.5753"
         r="2.7256818" />
      <g
         id="g2824"
         transform="translate(-0.21047475,0.02338608)">
        <path
           style="fill:none;stroke:#4467a5;stroke-width:0.717692;stroke-linecap:butt;stroke-linejoin:miter;stroke-miterlimit:4;stroke-dasharray:none;stroke-opacity:1"
           d="m 25.347782,340.17952 -39.185898,40.27395 1.114828,1.08472 39.185898,-40.27396 1.121507,1.09121 -39.185898,40.27396 1.121511,1.09119 39.185898,-40.27393 1.108151,1.07821 -39.1858938,40.27394 1.1215071,1.09122 39.1858987,-40.27395 1.112609,1.08255 -39.1858992,40.27395 1.1170547,1.08687 39.1858975,-40.27395 1.121508,1.09121 -39.1858975,40.27395 1.1170537,1.08687 39.1858978,-40.27395 1.121504,1.09121 -39.1858988,40.27395 1.1126156,1.08256 39.1858992,-40.27395 1.117057,1.08687 -39.18589737,40.27396 1.121504,1.09121 39.18589737,-40.27395 1.114839,1.08471 -39.1858982,40.27395 1.1170466,1.08687 39.1858976,-40.27395 1.117062,1.08688 -39.1858977,40.27396 1.1170587,1.08687 39.185897,-40.27395 1.123731,1.09338 -39.1858977,40.27394 1.1126114,1.08255 39.1858993,-40.27395 1.112601,1.08254 -39.1858994,40.27396 1.130415,1.09987 39.1858984,-40.27395 1.112596,1.08254 -39.185897,40.27395 1.121522,1.09122 39.185899,-40.27394 1.1126,1.08253 -39.185898,40.27396 1.121503,1.09121 39.185899,-40.27395"
           id="path289820"
           clip-path="url(#clipPath16602)"
           transform="matrix(0.35879846,0,0,0.35879846,22.503357,78.00037)" />
        <g
           aria-label="C"
           id="g289824"
           style="font-size:44.6799px;line-height:1.25;font-family:Gilroy;-inkscape-font-specification:Gilroy;fill:#0f45ff;fill-opacity:1;stroke-width:1.117"
           transform="matrix(0.35879846,0,0,0.35879846,22.520472,78.014108)">
          <path
             d="m 10.752952,380.96515 c -1.4963301,-1.74008 -2.322742,-3.63868 -2.322742,-6.59974 0,-5.58498 3.57439,-9.29342 9.1147,-9.29342 3.17227,0 0,0 0,0 l 0.0082,-7.02719 c 0,0 5.67435,0 0,0 -9.4274597,0 -16.326375,7.12809 -16.326375,16.33215 0,4.56611 1.7371576,8.59287 4.5837687,11.50326 z"
             id="path289822"
             style="fill:#0f45ff;fill-opacity:1"
             sodipodi:nodetypes="cssccsscc" />
        </g>
      </g>
      <path
         style="fill:none;stroke:#4467a5;stroke-width:0.717692;stroke-linecap:butt;stroke-linejoin:miter;stroke-miterlimit:4;stroke-dasharray:none;stroke-opacity:1"
         d="m 25.347782,340.17952 -39.185898,40.27395 1.114828,1.08472 39.185898,-40.27396 1.121507,1.09121 -39.185898,40.27396 1.121511,1.09119 39.185898,-40.27393 1.108151,1.07821 -39.1858938,40.27394 1.1215071,1.09122 39.1858987,-40.27395 1.112609,1.08255 -39.1858992,40.27395 1.1170547,1.08687 39.1858975,-40.27395 1.121508,1.09121 -39.1858975,40.27395 1.1170537,1.08687 39.1858978,-40.27395 1.121504,1.09121 -39.1858988,40.27395 1.1126156,1.08256 39.1858992,-40.27395 1.117057,1.08687 -39.18589737,40.27396 1.121504,1.09121 39.18589737,-40.27395 1.114839,1.08471 -39.1858982,40.27395 1.1170466,1.08687 39.1858976,-40.27395 1.117062,1.08688 -39.1858977,40.27396 1.1170587,1.08687 39.185897,-40.27395 1.123731,1.09338 -39.1858977,40.27394 1.1126114,1.08255 39.1858993,-40.27395 1.112601,1.08254 -39.1858994,40.27396 1.130415,1.09987 39.1858984,-40.27395 1.112596,1.08254 -39.185897,40.27395 1.121522,1.09122 39.185899,-40.27394 1.1126,1.08253 -39.185898,40.27396 1.121503,1.09121 39.185899,-40.27395"
         id="path289828"
         clip-path="url(#clipPath16602)"
         transform="matrix(0.35879846,0,0,0.35879846,65.284881,78.000332)" />
      <g
         aria-label="C"
         id="g289832"
         style="font-size:44.6799px;line-height:1.25;font-family:Gilroy;-inkscape-font-specification:Gilroy;fill:#0f45ff;fill-opacity:1;stroke-width:1.117"
         transform="matrix(0.35879846,0,0,0.35879846,65.301996,78.01407)">
        <path
           d="m 10.752952,380.96515 c -1.4963301,-1.74008 -2.322742,-3.63868 -2.322742,-6.59974 0,-5.58498 3.57439,-9.29342 9.1147,-9.29342 3.17227,0 0,0 0,0 l 0.0081,-7.05156 c 0,0 5.674397,0 0,0 -9.4274596,0 -16.3407596,7.16393 -16.3407596,16.36799 0,4.56611 1.7515602,8.58135 4.5981713,11.49174 z"
           id="path289830"
           style="fill:#0f45ff;fill-opacity:1"
           sodipodi:nodetypes="cssccsscc" />
      </g>
      <path
         style="fill:none;stroke:#4467a5;stroke-width:0.237751;stroke-linecap:butt;stroke-linejoin:miter;stroke-miterlimit:4;stroke-dasharray:none;stroke-opacity:1"
         d="m 62.334232,166.26091 -13.051912,13.27235 0.367392,0.3613 13.051913,-13.27235 0.369595,0.36345 -13.051911,13.27235 0.369595,0.36345 13.05191,-13.27234 0.365193,0.35912 -13.05191,13.27235 0.369597,0.36347 13.051911,-13.27236 0.366662,0.36057 -13.051912,13.27235 0.368127,0.36202 13.051913,-13.27234 0.369595,0.36345 -13.051912,13.27235 0.368127,0.362 13.051911,-13.27234 0.369594,0.36346 -13.051911,13.27235 0.366663,0.36057 13.051912,-13.27236 0.368128,0.36201 -13.051911,13.27236 0.369594,0.36347 13.051912,-13.27237 0.367396,0.36131 -13.051911,13.27234 0.368124,0.36201 13.051912,-13.27235 0.36813,0.36201 -13.051912,13.27237 0.36813,0.36201 13.05191,-13.27236 0.370328,0.36418 -13.051912,13.27235 0.366664,0.36057 13.051911,-13.27235 0.366659,0.36057 -13.051911,13.27235 0.372531,0.36635 13.051913,-13.27236 0.366654,0.36057 -13.051909,13.27235 0.369598,0.36345 13.051914,-13.27234 0.366659,0.36058 -13.051912,13.27235 0.369593,0.36345 13.051912,-13.27235"
         id="path289834"
         clip-path="url(#clipPath67886)"
         transform="translate(21.553388,35.166912)" />
      <rect
         style="fill:#0f45ff;fill-opacity:1;stroke:none;stroke-width:0.171498;stroke-linecap:round;stroke-linejoin:round;stroke-miterlimit:4;stroke-dasharray:none"
         id="rect289836"
         width="2.6752014"
         height="11.599324"
         x="78.46328"
         y="206.5554" />
      <path
         style="fill:none;stroke:#4467a5;stroke-width:0.257377;stroke-linecap:butt;stroke-linejoin:miter;stroke-miterlimit:4;stroke-dasharray:none;stroke-opacity:1"
         d="m 62.804841,165.64528 -14.129333,14.36797 0.39772,0.39112 14.129333,-14.36796 0.400105,0.39345 -14.129331,14.36797 0.400105,0.39345 14.12933,-14.36796 0.395339,0.38876 -14.12933,14.36797 0.400107,0.39348 14.129331,-14.36798 0.39693,0.39033 -14.129332,14.36797 0.398515,0.3919 14.129334,-14.36796 0.400104,0.39346 -14.129332,14.36796 0.398515,0.39189 14.129332,-14.36796 0.400103,0.39346 -14.129331,14.36797 0.39693,0.39034 14.129333,-14.36797 0.398517,0.39189 -14.129332,14.36798 0.400103,0.39347 14.129333,-14.36799 0.397725,0.39114 -14.129333,14.36795 0.398512,0.3919 14.129334,-14.36797 0.398518,0.39189 -14.129332,14.36799 0.398518,0.39189 14.12933,-14.36798 0.400899,0.39425 -14.129333,14.36796 0.396932,0.39034 14.129331,-14.36797 0.396927,0.39033 -14.129332,14.36797 0.403283,0.39659 14.129334,-14.36798 0.396921,0.39034 -14.12933,14.36797 0.400108,0.39345 14.129336,-14.36796 0.396925,0.39034 -14.129332,14.36797 0.400103,0.39347 14.129332,-14.36797"
         id="path289838"
         clip-path="url(#clipPath68090)"
         transform="translate(31.209414,34.978191)" />
      <rect
         style="fill:#0f45ff;fill-opacity:1;stroke:none;stroke-width:0.170154;stroke-linecap:round;stroke-linejoin:round;stroke-miterlimit:4;stroke-dasharray:none"
         id="rect289840"
         width="2.660095"
         height="11.607146"
         x="87.833107"
         y="206.4892" />
      <g
         aria-label="R"
         id="g289844"
         style="font-size:16.6776px;line-height:1.25;font-family:Gilroy;-inkscape-font-specification:Gilroy;fill:#0f45ff;fill-opacity:1;stroke-width:0.416939"
         transform="translate(23.264154,54.669932)">
        <path
           d="m 70.698358,163.48744 h 2.868547 l -2.506026,-4.34878 c -0.621328,0.27877 -0.828372,0.36596 -2.6059,0.46079 z"
           id="path289842"
           sodipodi:nodetypes="ccccc"
           style="fill:#0f45ff;fill-opacity:1" />
      </g>
      <path
         style="fill:none;stroke:#4467a5;stroke-width:0.257377;stroke-linecap:butt;stroke-linejoin:miter;stroke-miterlimit:4;stroke-dasharray:none;stroke-opacity:1"
         d="m 62.804841,165.64528 -14.129333,14.36797 0.39772,0.39112 14.129333,-14.36796 0.400105,0.39345 -14.129331,14.36797 0.400105,0.39345 14.12933,-14.36796 0.395339,0.38876 -14.12933,14.36797 0.400107,0.39348 14.129331,-14.36798 0.39693,0.39033 -14.129332,14.36797 0.398515,0.3919 14.129334,-14.36796 0.400104,0.39346 -14.129332,14.36796 0.398515,0.39189 14.129332,-14.36796 0.400103,0.39346 -14.129331,14.36797 0.39693,0.39034 14.129333,-14.36797 0.398517,0.39189 -14.129332,14.36798 0.400103,0.39347 14.129333,-14.36799 0.397725,0.39114 -14.129333,14.36795 0.398512,0.3919 14.129334,-14.36797 0.398518,0.39189 -14.129332,14.36799 0.398518,0.39189 14.12933,-14.36798 0.400899,0.39425 -14.129333,14.36796 0.396932,0.39034 14.129331,-14.36797 0.396927,0.39033 -14.129332,14.36797 0.403283,0.39659 14.129334,-14.36798 0.396921,0.39034 -14.12933,14.36797 0.400108,0.39345 14.129336,-14.36796 0.396925,0.39034 -14.129332,14.36797 0.400103,0.39347 14.129332,-14.36797"
         id="path289846"
         clip-path="url(#clipPath68370)"
         transform="translate(41.357917,34.675317)" />
      <rect
         style="fill:#0f45ff;fill-opacity:1;stroke:none;stroke-width:0.176999;stroke-linecap:round;stroke-linejoin:round;stroke-miterlimit:4;stroke-dasharray:none"
         id="rect289848"
         width="8.4629288"
         height="2.7425513"
         x="98.900581"
         y="206.55713" />
      <path
         style="fill:none;stroke:#4467a5;stroke-width:0.257377;stroke-linecap:butt;stroke-linejoin:miter;stroke-miterlimit:4;stroke-dasharray:none;stroke-opacity:1"
         d="m 62.804841,165.64528 -14.129333,14.36797 0.39772,0.39112 14.129333,-14.36796 0.400105,0.39345 -14.129331,14.36797 0.400105,0.39345 14.12933,-14.36796 0.395339,0.38876 -14.12933,14.36797 0.400107,0.39348 14.129331,-14.36798 0.39693,0.39033 -14.129332,14.36797 0.398515,0.3919 14.129334,-14.36796 0.400104,0.39346 -14.129332,14.36796 0.398515,0.39189 14.129332,-14.36796 0.400103,0.39346 -14.129331,14.36797 0.39693,0.39034 14.129333,-14.36797 0.398517,0.39189 -14.129332,14.36798 0.400103,0.39347 14.129333,-14.36799 0.397725,0.39114 -14.129333,14.36795 0.398512,0.3919 14.129334,-14.36797 0.398518,0.39189 -14.129332,14.36799 0.398518,0.39189 14.12933,-14.36798 0.400899,0.39425 -14.129333,14.36796 0.396932,0.39034 14.129331,-14.36797 0.396927,0.39033 -14.129332,14.36797 0.403283,0.39659 14.129334,-14.36798 0.396921,0.39034 -14.12933,14.36797 0.400108,0.39345 14.129336,-14.36796 0.396925,0.39034 -14.129332,14.36797 0.400103,0.39347 14.129332,-14.36797"
         id="path289850"
         clip-path="url(#clipPath96123)"
         transform="translate(-19.370992,37.537485)" />
      <g
         aria-label="O"
         id="g289854"
         style="font-weight:800;font-size:11.6135px;line-height:1.25;font-family:Gilroy;-inkscape-font-specification:'Gilroy Ultra-Bold';fill:#0f45ff;fill-opacity:1;stroke-width:0.290339"
         transform="rotate(176.85678,49.087182,194.89339)"
         clip-path="url(#clipPath98326)">
        <path
           d="m 59.294808,180.6169 c 2.334314,0 4.227314,-1.83493 4.227314,-4.22731 0,-2.39238 -1.893,-4.22731 -4.227314,-4.22731 -2.334313,0 -4.227314,1.83493 -4.227314,4.22731 0,2.39238 1.893001,4.22731 4.227314,4.22731 z m 0,-1.8117 c -1.323939,0 -2.369154,-0.96392 -2.369154,-2.41561 0,-1.45169 1.045215,-2.41561 2.369154,-2.41561 1.323939,0 2.32235,0.96135 2.32235,2.41304 0,1.45169 -0.998411,2.41818 -2.32235,2.41818 z"
           id="path289852"
           style="fill:#0f45ff;fill-opacity:1"
           sodipodi:nodetypes="ssssssssss" />
      </g>
      <path
         style="fill:none;stroke:#4467a5;stroke-width:0.257377;stroke-linecap:butt;stroke-linejoin:miter;stroke-miterlimit:4;stroke-dasharray:none;stroke-opacity:1"
         d="m 79.738185,165.64528 -14.129333,14.36797 0.39772,0.39112 14.129333,-14.36796 0.400105,0.39345 -14.129331,14.36797 0.400105,0.39345 14.12933,-14.36796 0.395339,0.38876 -14.12933,14.36797 0.400107,0.39348 14.129331,-14.36798 0.39693,0.39033 -14.129332,14.36797 0.398515,0.3919 14.129334,-14.36796 0.400104,0.39346 -14.129332,14.36796 0.398515,0.39189 14.129332,-14.36796 0.400103,0.39346 -14.129331,14.36797 0.39693,0.39034 14.129333,-14.36797 0.398517,0.39189 -14.129332,14.36798 0.400103,0.39347 14.129333,-14.36799 0.397725,0.39114 -14.129333,14.36795 0.398512,0.3919 14.129334,-14.36797 0.398518,0.39189 -14.129332,14.36799 0.398518,0.39189 14.12933,-14.36798 0.400899,0.39425 -14.129333,14.36796 0.396932,0.39034 14.129331,-14.36797 0.396927,0.39033 -14.129332,14.36797 0.403283,0.39659 14.129334,-14.36798 0.396921,0.39034 -14.12933,14.36797 0.400108,0.39345 14.129336,-14.36796 0.396925,0.39034 -14.129332,14.36797 0.400103,0.39347 14.129332,-14.36797"
         id="path289856"
         clip-path="url(#clipPath10068)"
         transform="translate(-26.67567,35.328215)" />
      <rect
         style="fill:#0f45ff;fill-opacity:1;stroke:none;stroke-width:0.0523499;stroke-linecap:round;stroke-linejoin:round"
         id="rect289858"
         width="2.4140625"
         height="8.011507"
         x="46.225113"
         y="210.14513" />
      <path
         style="fill:none;stroke:#4467a5;stroke-width:0.257377;stroke-linecap:butt;stroke-linejoin:miter;stroke-miterlimit:4;stroke-dasharray:none;stroke-opacity:1"
         d="m 79.738185,165.64528 -14.129333,14.36797 0.39772,0.39112 14.129333,-14.36796 0.400105,0.39345 -14.129331,14.36797 0.400105,0.39345 14.12933,-14.36796 0.395339,0.38876 -14.12933,14.36797 0.400107,0.39348 14.129331,-14.36798 0.39693,0.39033 -14.129332,14.36797 0.398515,0.3919 14.129334,-14.36796 0.400104,0.39346 -14.129332,14.36796 0.398515,0.39189 14.129332,-14.36796 0.400103,0.39346 -14.129331,14.36797 0.39693,0.39034 14.129333,-14.36797 0.398517,0.39189 -14.129332,14.36798 0.400103,0.39347 14.129333,-14.36799 0.397725,0.39114 -14.129333,14.36795 0.398512,0.3919 14.129334,-14.36797 0.398518,0.39189 -14.129332,14.36799 0.398518,0.39189 14.12933,-14.36798 0.400899,0.39425 -14.129333,14.36796 0.396932,0.39034 14.129331,-14.36797 0.396927,0.39033 -14.129332,14.36797 0.403283,0.39659 14.129334,-14.36798 0.396921,0.39034 -14.12933,14.36797 0.400108,0.39345 14.129336,-14.36796 0.396925,0.39034 -14.129332,14.36797 0.400103,0.39347 14.129332,-14.36797"
         id="path289860"
         clip-path="url(#clipPath10068)"
         transform="translate(-16.915897,35.328215)" />
      <rect
         style="fill:#0f45ff;fill-opacity:1;stroke:none;stroke-width:0.0523499;stroke-linecap:round;stroke-linejoin:round"
         id="rect289862"
         width="2.4140625"
         height="8.011507"
         x="55.984886"
         y="210.14513" />
    </g>
  </g>
</svg>
