<?xml version="1.0" encoding="UTF-8" standalone="no"?>
<!-- Created with Inkscape (http://www.inkscape.org/) -->

<svg
   width="210mm"
   height="210mm"
   viewBox="0 0 210 210"
   version="1.1"
   id="svg2921"
   inkscape:version="1.1.1 (3bf5ae0d25, 2021-09-20)"
   sodipodi:docname="standaloneC.svg"
   inkscape:export-filename="C:\Users\jaivi\Documents\UNI DUE\Vorlesungen\5. Semester\Kommunikation von Cyber-Warnmeldungen\Logo Vorschläge\standaloneC.png"
   inkscape:export-xdpi="500"
   inkscape:export-ydpi="500"
   xmlns:inkscape="http://www.inkscape.org/namespaces/inkscape"
   xmlns:sodipodi="http://sodipodi.sourceforge.net/DTD/sodipodi-0.dtd"
   xmlns="http://www.w3.org/2000/svg"
   xmlns:svg="http://www.w3.org/2000/svg">
  <sodipodi:namedview
     id="namedview2923"
     pagecolor="#ffffff"
     bordercolor="#666666"
     borderopacity="1.0"
     inkscape:pageshadow="2"
     inkscape:pageopacity="0.0"
     inkscape:pagecheckerboard="0"
     inkscape:document-units="mm"
     showgrid="false"
     showguides="true"
     inkscape:guide-bbox="true"
     inkscape:zoom="1.0431611"
     inkscape:cx="467.32954"
     inkscape:cy="377.21882"
     inkscape:window-width="1920"
     inkscape:window-height="991"
     inkscape:window-x="-9"
     inkscape:window-y="-9"
     inkscape:window-maximized="1"
     inkscape:current-layer="layer1" />
  <defs
     id="defs2918">
    <inkscape:path-effect
       effect="powerclip"
       id="path-effect897"
       is_visible="true"
       lpeversion="1"
       inverse="true"
       flatten="false"
       hide_clip="false"
       message="Füllregel Gerade-Ungerade im &lt;b&gt;Füllung und Kontur&lt;/b&gt;-Dialog verwenden, wenn das Anwenden des Ausschnitts mit nachfolgendem Umwandeln in Pfade kein Ergebnis bringt" />
    <inkscape:path-effect
       effect="powerclip"
       id="path-effect893"
       is_visible="true"
       lpeversion="1"
       inverse="true"
       flatten="false"
       hide_clip="false"
       message="Füllregel Gerade-Ungerade im &lt;b&gt;Füllung und Kontur&lt;/b&gt;-Dialog verwenden, wenn das Anwenden des Ausschnitts mit nachfolgendem Umwandeln in Pfade kein Ergebnis bringt" />
    <inkscape:path-effect
       effect="powerclip"
       id="path-effect889"
       is_visible="true"
       lpeversion="1"
       inverse="true"
       flatten="false"
       hide_clip="false"
       message="Füllregel Gerade-Ungerade im &lt;b&gt;Füllung und Kontur&lt;/b&gt;-Dialog verwenden, wenn das Anwenden des Ausschnitts mit nachfolgendem Umwandeln in Pfade kein Ergebnis bringt" />
    <inkscape:path-effect
       effect="powerclip"
       id="path-effect885"
       is_visible="true"
       lpeversion="1"
       inverse="true"
       flatten="false"
       hide_clip="false"
       message="Füllregel Gerade-Ungerade im &lt;b&gt;Füllung und Kontur&lt;/b&gt;-Dialog verwenden, wenn das Anwenden des Ausschnitts mit nachfolgendem Umwandeln in Pfade kein Ergebnis bringt" />
    <clipPath
       clipPathUnits="userSpaceOnUse"
       id="clipPath16602">
      <g
         aria-label="C"
         id="g16606"
         style="font-size:44.6799px;line-height:1.25;font-family:Gilroy;-inkscape-font-specification:Gilroy;stroke-width:1.117">
        <path
           d="m 17.54491,390.6289 c 5.71903,0 10.72318,-2.81484 13.40397,-7.23815 l -6.16583,-3.57439 c -1.34039,2.41272 -4.06587,3.84247 -7.23814,3.84247 -5.54031,0 -9.1147,-3.70843 -9.1147,-9.29342 0,-5.58498 3.57439,-9.29342 9.1147,-9.29342 3.17227,0 5.85307,1.42976 7.23814,3.84248 l 6.16583,-3.5744 c -2.72547,-4.42331 -7.72962,-7.23814 -13.40397,-7.23814 -9.42746,0 -16.26348,7.05942 -16.26348,16.26348 0,9.20406 6.83602,16.26349 16.26348,16.26349 z"
           id="path16604"
           style="fill:#ef1b4a;fill-opacity:1" />
      </g>
    </clipPath>
    <clipPath
       clipPathUnits="userSpaceOnUse"
       id="clipPath2995">
      <g
         aria-label="C"
         id="g2993"
         style="font-size:44.6799px;line-height:1.25;font-family:Gilroy;-inkscape-font-specification:Gilroy;stroke-width:1.117">
        <path
           d="m 17.54491,390.6289 c 5.71903,0 10.72318,-2.81484 13.40397,-7.23815 l -6.16583,-3.57439 c -1.34039,2.41272 -4.06587,3.84247 -7.23814,3.84247 -5.54031,0 -9.1147,-3.70843 -9.1147,-9.29342 0,-5.58498 3.57439,-9.29342 9.1147,-9.29342 3.17227,0 5.85307,1.42976 7.23814,3.84248 l 6.16583,-3.5744 c -2.72547,-4.42331 -7.72962,-7.23814 -13.40397,-7.23814 -9.42746,0 -16.26348,7.05942 -16.26348,16.26348 0,9.20406 6.83602,16.26349 16.26348,16.26349 z"
           id="path2991"
           style="fill:#ef1b4a;fill-opacity:1" />
      </g>
    </clipPath>
    <clipPath
       clipPathUnits="userSpaceOnUse"
       id="clipPath67886">
      <g
         aria-label="E"
         id="g67890"
         style="font-size:10.5833px;line-height:1.25;font-family:Gilroy;-inkscape-font-specification:Gilroy;stroke-width:0.264583"
         transform="matrix(1.5657409,0,0,1.5657409,-30.088258,-67.881966)">
        <path
           d="m 57.259917,158.59619 v -1.31233 h 2.645825 v -1.60867 h -2.645825 v -1.22766 h 2.910407 v -1.62983 h -4.603735 v 7.40831 h 4.656652 v -1.62982 z"
           id="path67888" />
      </g>
    </clipPath>
    <clipPath
       clipPathUnits="userSpaceOnUse"
       id="clipPath68090">
      <g
         aria-label="R"
         id="g68094"
         style="font-size:10.5833px;line-height:1.25;font-family:Gilroy;-inkscape-font-specification:Gilroy;stroke-width:0.264583"
         transform="matrix(1.5631778,0,0,1.5631778,-53.085878,-101.51293)">
        <path
           d="m 74.08379,182.07803 h 1.820328 l -1.576912,-2.7199 c 0.814914,-0.41275 1.365246,-1.23825 1.365246,-2.14841 0,-1.40758 -1.132413,-2.54 -2.539992,-2.54 h -2.963324 v 7.40831 h 1.693328 v -2.43416 h 0.804331 z m -2.201326,-5.82081 h 1.269996 c 0.465665,0 0.846664,0.41275 0.846664,0.9525 0,0.53974 -0.380999,0.95249 -0.846664,0.95249 h -1.269996 z"
           id="path68092" />
      </g>
    </clipPath>
    <clipPath
       clipPathUnits="userSpaceOnUse"
       id="clipPath68370">
      <g
         aria-label="T"
         id="g68374"
         style="font-size:10.5833px;line-height:1.25;font-family:Gilroy;-inkscape-font-specification:Gilroy;stroke-width:0.264583"
         transform="matrix(1.5360115,0,0,1.5360115,-61.008157,-127.52357)">
        <path
           d="m 82.687167,195.06779 h -5.503316 v 1.62983 h 1.904994 v 5.77848 h 1.693328 v -5.77848 h 1.904994 z"
           id="path68372" />
      </g>
    </clipPath>
    <clipPath
       clipPathUnits="userSpaceOnUse"
       id="clipPath96123">
      <g
         aria-label="O"
         id="g96127"
         style="font-weight:800;font-size:11.6135px;line-height:1.25;font-family:Gilroy;-inkscape-font-specification:'Gilroy Ultra-Bold';stroke-width:0.290339">
        <path
           d="m 59.294808,180.6169 c 2.334314,0 4.227314,-1.83493 4.227314,-4.22731 0,-2.39238 -1.893,-4.22731 -4.227314,-4.22731 -2.334313,0 -4.227314,1.83493 -4.227314,4.22731 0,2.39238 1.893001,4.22731 4.227314,4.22731 z m 0,-1.8117 c -1.323939,0 -2.369154,-0.96392 -2.369154,-2.41561 0,-1.45169 1.045215,-2.41561 2.369154,-2.41561 1.323939,0 2.369154,0.96392 2.369154,2.41561 0,1.45169 -1.045215,2.41561 -2.369154,2.41561 z"
           id="path96125" />
      </g>
    </clipPath>
    <clipPath
       clipPathUnits="userSpaceOnUse"
       id="clipPath98326">
      <rect
         style="fill:#ffffff;fill-opacity:1;stroke:none;stroke-width:0.0499999;stroke-linecap:round;stroke-linejoin:round;stroke-miterlimit:4;stroke-dasharray:none;stroke-opacity:1"
         id="rect98328"
         width="10.96875"
         height="9.75"
         x="161.89072"
         y="72.382278"
         transform="rotate(45.285762)" />
    </clipPath>
    <clipPath
       clipPathUnits="userSpaceOnUse"
       id="clipPath10068">
      <text
         xml:space="preserve"
         style="font-size:16.0001px;line-height:1.25;font-family:Gilroy;-inkscape-font-specification:Gilroy;fill:#ffffff;fill-opacity:1;stroke-width:0.400005"
         x="72.02652"
         y="182.81755"
         id="text10072"><tspan
           sodipodi:role="line"
           id="tspan10070"
           style="font-style:normal;font-variant:normal;font-weight:800;font-stretch:normal;font-family:Gilroy;-inkscape-font-specification:'Gilroy Ultra-Bold';fill:#ffffff;fill-opacity:1;stroke-width:0.400005"
           x="72.02652"
           y="182.81755">n</tspan></text>
    </clipPath>
    <clipPath
       clipPathUnits="userSpaceOnUse"
       id="clipPath3018">
      <text
         xml:space="preserve"
         style="font-size:16.0001px;line-height:1.25;font-family:Gilroy;-inkscape-font-specification:Gilroy;fill:#ffffff;fill-opacity:1;stroke-width:0.400005"
         x="72.02652"
         y="182.81755"
         id="text3016"><tspan
           sodipodi:role="line"
           id="tspan3014"
           style="font-style:normal;font-variant:normal;font-weight:800;font-stretch:normal;font-family:Gilroy;-inkscape-font-specification:'Gilroy Ultra-Bold';fill:#ffffff;fill-opacity:1;stroke-width:0.400005"
           x="72.02652"
           y="182.81755">n</tspan></text>
    </clipPath>
    <clipPath
       clipPathUnits="userSpaceOnUse"
       id="clipPath3024">
      <g
         aria-label="C"
         id="g3022"
         style="font-size:44.6799px;line-height:1.25;font-family:Gilroy;-inkscape-font-specification:Gilroy;stroke-width:1.117">
        <path
           d="m 17.54491,390.6289 c 5.71903,0 10.72318,-2.81484 13.40397,-7.23815 l -6.16583,-3.57439 c -1.34039,2.41272 -4.06587,3.84247 -7.23814,3.84247 -5.54031,0 -9.1147,-3.70843 -9.1147,-9.29342 0,-5.58498 3.57439,-9.29342 9.1147,-9.29342 3.17227,0 5.85307,1.42976 7.23814,3.84248 l 6.16583,-3.5744 c -2.72547,-4.42331 -7.72962,-7.23814 -13.40397,-7.23814 -9.42746,0 -16.26348,7.05942 -16.26348,16.26348 0,9.20406 6.83602,16.26349 16.26348,16.26349 z"
           id="path3020"
           style="fill:#ef1b4a;fill-opacity:1" />
      </g>
    </clipPath>
    <clipPath
       clipPathUnits="userSpaceOnUse"
       id="clipPath869">
      <circle
         style="display:none;fill:#ffffff;fill-opacity:1;stroke:none;stroke-width:0.515217;stroke-linecap:round;stroke-linejoin:round;stroke-miterlimit:4;stroke-dasharray:none;stroke-opacity:1;paint-order:normal"
         id="circle871"
         cx="34.75029"
         cy="102.87553"
         r="7.2295604" />
    </clipPath>
    <clipPath
       clipPathUnits="userSpaceOnUse"
       id="clipPath873">
      <circle
         style="display:none;fill:#ffffff;fill-opacity:1;stroke:none;stroke-width:0.515217;stroke-linecap:round;stroke-linejoin:round;stroke-miterlimit:4;stroke-dasharray:none;stroke-opacity:1;paint-order:normal"
         id="circle875"
         cx="34.75029"
         cy="102.87553"
         r="7.2295604" />
    </clipPath>
    <clipPath
       clipPathUnits="userSpaceOnUse"
       id="clipPath877">
      <circle
         style="display:none;fill:#ffffff;fill-opacity:1;stroke:none;stroke-width:0.515217;stroke-linecap:round;stroke-linejoin:round;stroke-miterlimit:4;stroke-dasharray:none;stroke-opacity:1;paint-order:normal"
         id="circle879"
         cx="34.75029"
         cy="102.87553"
         r="7.2295604" />
    </clipPath>
    <clipPath
       clipPathUnits="userSpaceOnUse"
       id="clipPath881">
      <circle
         style="display:none;fill:#ffffff;fill-opacity:1;stroke:none;stroke-width:0.515217;stroke-linecap:round;stroke-linejoin:round;stroke-miterlimit:4;stroke-dasharray:none;stroke-opacity:1;paint-order:normal"
         id="circle883"
         cx="34.75029"
         cy="102.87553"
         r="7.2295604" />
    </clipPath>
  </defs>
  <g
     inkscape:label="Ebene 1"
     inkscape:groupmode="layer"
     id="layer1">
    <g
       id="g2814"
       transform="matrix(13.60475,0,0,13.60475,-360.0639,-1291.2742)">
      <g
         id="g2819"
         transform="translate(-0.2697596,0.1471416)">
        <path
           style="fill:none;fill-opacity:1;stroke:#4467a5;stroke-width:0.717692;stroke-linecap:butt;stroke-linejoin:miter;stroke-miterlimit:4;stroke-dasharray:none;stroke-opacity:1"
           d="m 25.347782,340.17952 -39.185898,40.27395 1.114828,1.08472 39.185898,-40.27396 1.121507,1.09121 -39.185898,40.27396 1.121511,1.09119 39.185898,-40.27393 1.108151,1.07821 -39.1858938,40.27394 1.1215071,1.09122 39.1858987,-40.27395 1.112609,1.08255 -39.1858992,40.27395 1.1170547,1.08687 39.1858975,-40.27395 1.121508,1.09121 -39.1858975,40.27395 1.1170537,1.08687 39.1858978,-40.27395 1.121504,1.09121 -39.1858988,40.27395 1.1126156,1.08256 39.1858992,-40.27395 1.117057,1.08687 -39.18589737,40.27396 1.121504,1.09121 39.18589737,-40.27395 1.114839,1.08471 -39.1858982,40.27395 1.1170466,1.08687 39.1858976,-40.27395 1.117062,1.08688 -39.1858977,40.27396 1.1170587,1.08687 39.185897,-40.27395 1.123731,1.09338 -39.1858977,40.27394 1.1126114,1.08255 39.1858993,-40.27395 1.112601,1.08254 -39.1858994,40.27396 1.130415,1.09987 39.1858984,-40.27395 1.112596,1.08254 -39.185897,40.27395 1.121522,1.09122 39.185899,-40.27394 1.1126,1.08253 -39.185898,40.27396 1.121503,1.09121 39.185899,-40.27395"
           id="path289888"
           clip-path="url(#clipPath16602)"
           transform="matrix(0.35879846,0,0,0.35879846,28.640815,-31.603601)" />
        <g
           aria-label="C"
           id="g289892"
           style="font-size:44.6799px;line-height:1.25;font-family:Gilroy;-inkscape-font-specification:Gilroy;fill:#0f45ff;fill-opacity:1;stroke-width:1.117"
           transform="matrix(0.35879846,0,0,0.35879846,28.65793,-31.589863)">
          <path
             d="m 10.752952,380.96515 c -1.4963301,-1.74008 -2.322742,-3.63868 -2.322742,-6.59974 0,-5.58498 3.57439,-9.29342 9.1147,-9.29342 3.17227,0 0,0 0,0 l 0.0082,-7.02719 c 0,0 5.67435,0 0,0 -9.4274597,0 -16.326375,7.12809 -16.326375,16.33215 0,4.56611 1.7371576,8.59287 4.5837687,11.50326 z"
             id="path289890"
             style="fill:#0f45ff;fill-opacity:1"
             sodipodi:nodetypes="cssccsscc" />
        </g>
      </g>
    </g>
  </g>
</svg>
